<svg xmlns:xlink="http://www.w3.org/1999/xlink" width="32" height="32" viewBox="0 0 32 32" fill="none" xmlns="http://www.w3.org/2000/svg"><path d="M22.5187 27.4077H6.22219C3.52187 27.4077 1.33325 25.2191 1.33325 22.5187V6.22228C1.33325 3.52195 3.52187 1.33333 6.22219 1.33333H22.5187C25.219 1.33333 27.4076 3.52195 27.4076 6.22228V22.5187C27.4076 25.2191 25.219 27.4077 22.5187 27.4077Z" fill="#52525B"></path><path d="M27.1791 4.82062C27.3127 5.26714 27.4072 5.73159 27.4072 6.22212V22.5186C27.4072 25.2189 25.2186 27.4075 22.5183 27.4075H6.22181C5.73129 27.4075 5.26684 27.313 4.82031 27.1794C5.42654 29.192 7.2713 30.6668 9.4811 30.6668H25.7776C28.4779 30.6668 30.6665 28.4782 30.6665 25.7779V9.48141C30.6665 7.27161 29.1917 5.42685 27.1791 4.82062Z" fill="#71717A"></path><path d="M18.4445 12.7407C19.7945 12.7407 20.8889 11.6463 20.8889 10.2962C20.8889 8.94619 19.7945 7.85176 18.4445 7.85176C17.0944 7.85176 16 8.94619 16 10.2962C16 11.6463 17.0944 12.7407 18.4445 12.7407Z" fill="#A1A1AA"></path><path d="M6.22217 21.5001C6.22217 22.0574 6.67847 22.5186 7.2407 22.5186H21.5001C22.0623 22.5186 22.5186 22.0655 22.5186 21.5001C22.5186 20.1116 21.7494 16 20.0742 16C19.2479 16 17.9638 17.6296 16.8149 17.6296C14.5334 17.6296 12.3333 12.7407 10.2963 12.7407C8.25923 12.7407 6.22217 18.8128 6.22217 21.5001Z" fill="#A1A1AA"></path></svg>