<?xml version="1.0" encoding="UTF-8" standalone="no"?>
<!DOCTYPE svg PUBLIC "-//W3C//DTD SVG 1.1//EN" "http://www.w3.org/Graphics/SVG/1.1/DTD/svg11.dtd">
<svg width="100%" height="100%" viewBox="0 0 173 39" version="1.1" xmlns="http://www.w3.org/2000/svg" xmlns:xlink="http://www.w3.org/1999/xlink" xml:space="preserve" xmlns:serif="http://www.serif.com/" style="fill-rule:evenodd;clip-rule:evenodd;stroke-linejoin:round;stroke-miterlimit:2;">
    <g transform="matrix(1,0,0,1,-2964.19,-4461.9)">
        <g transform="matrix(0.996682,0,0,0.994293,2101.56,3817.07)">
            <g transform="matrix(0.704941,0,0,0.706635,216.765,-594.115)">
                <g transform="matrix(1,0,0,1,111.176,978.567)">
                    <g transform="matrix(0.277001,0,0,1,735.431,756.541)">
                        <path d="M1151.78,37.052C1151.78,29.535 1129.75,23.433 1102.61,23.433L315.136,23.433C288.002,23.433 265.972,29.535 265.972,37.052L265.972,64.289C265.972,71.806 288.002,77.908 315.136,77.908L1102.61,77.908C1129.75,77.908 1151.78,71.806 1151.78,64.289L1151.78,37.052Z" style="fill:rgb(39,39,42);"/>
                    </g>
                    <g transform="matrix(1.24164,0,0,1.24164,771.533,770.196)">
                        <text x="89.146px" y="37.587px" style="font-family:'MalgunGothicBold', 'Malgun Gothic', sans-serif;font-weight:700;font-size:20.831px;fill:white;">Uplo<tspan x="135.802px 147.113px " y="37.587px 37.587px ">ad</tspan> Json</text>
                    </g>
                </g>
                <g transform="matrix(0.996682,0,0,0.994293,-231.366,853.051)">
                    <g transform="matrix(0.319486,0,0,1.07033,809.442,-1300.81)">
                        <path d="M1193.76,2078.29C1193.76,2079.11 1193.82,2095.21 1193.82,2096.82" style="fill:rgb(39,39,42);"/>
                        <path d="M1188.18,2078.29C1188.18,2079.11 1188.23,2095.21 1188.23,2096.82C1188.23,2097.75 1190.73,2098.5 1193.82,2098.5C1196.9,2098.5 1199.4,2097.75 1199.4,2096.82C1199.4,2095.21 1199.35,2079.11 1199.35,2078.29C1199.35,2077.37 1196.85,2076.62 1193.76,2076.62C1190.68,2076.62 1188.18,2077.37 1188.18,2078.29Z" style="fill:white;"/>
                    </g>
                    <g transform="matrix(1,0,0,1,0,-5.0287)">
                        <g transform="matrix(0.319486,0,0,0.647274,796.026,-399.792)">
                            <path d="M1193.76,2078.29C1193.76,2079.11 1193.82,2095.21 1193.82,2096.82" style="fill:rgb(39,39,42);"/>
                            <path d="M1188.18,2078.29C1188.18,2079.11 1188.23,2095.21 1188.23,2096.82C1188.23,2098.35 1190.73,2099.59 1193.82,2099.59C1196.9,2099.59 1199.4,2098.35 1199.4,2096.82C1199.4,2095.21 1199.35,2079.11 1199.35,2078.29C1199.35,2076.76 1196.85,2075.52 1193.76,2075.52C1190.68,2075.52 1188.18,2076.76 1188.18,2078.29Z" style="fill:white;"/>
                        </g>
                        <g transform="matrix(0.319486,0,0,0.647274,822.541,-399.792)">
                            <path d="M1193.76,2078.29C1193.76,2079.11 1193.82,2095.21 1193.82,2096.82" style="fill:rgb(39,39,42);"/>
                            <path d="M1188.18,2078.29C1188.18,2079.11 1188.23,2095.21 1188.23,2096.82C1188.23,2098.35 1190.73,2099.59 1193.82,2099.59C1196.9,2099.59 1199.4,2098.35 1199.4,2096.82C1199.4,2095.21 1199.35,2079.11 1199.35,2078.29C1199.35,2076.76 1196.85,2075.52 1193.76,2075.52C1190.68,2075.52 1188.18,2076.76 1188.18,2078.29Z" style="fill:white;"/>
                        </g>
                        <g transform="matrix(1.96173e-17,0.320254,-1.41966,8.69555e-17,4154.36,575.404)">
                            <path d="M1193.76,2078.29C1193.76,2079.11 1193.82,2095.21 1193.82,2096.82" style="fill:rgb(39,39,42);"/>
                            <path d="M1188.18,2078.29C1188.18,2079.11 1188.23,2095.21 1188.23,2096.82C1188.23,2097.52 1190.73,2098.08 1193.82,2098.08C1196.9,2098.08 1199.4,2097.52 1199.4,2096.82C1199.4,2095.21 1199.35,2079.11 1199.35,2078.29C1199.35,2077.59 1196.85,2077.03 1193.76,2077.03C1190.68,2077.03 1188.18,2077.59 1188.18,2078.29Z" style="fill:white;"/>
                        </g>
                    </g>
                    <g>
                        <g transform="matrix(1.00333,0,0,1.00574,-7.24175,-1165.79)">
                            <path d="M1194.19,2076.97C1195,2077.79 1201.99,2084.32 1202.3,2084.63" style="fill:rgb(39,39,42);"/>
                            <path d="M1192.92,2078.22C1193.74,2079.04 1200.74,2085.59 1201.06,2085.9C1201.76,2086.59 1202.89,2086.57 1203.58,2085.87C1204.26,2085.17 1204.25,2084.04 1203.54,2083.35C1203.23,2083.05 1196.26,2076.53 1195.45,2075.72C1194.76,2075.02 1193.63,2075.01 1192.94,2075.71C1192.24,2076.4 1192.23,2077.53 1192.92,2078.22Z" style="fill:white;"/>
                        </g>
                        <g transform="matrix(-1.00333,0,0,1.00574,2389.03,-1165.79)">
                            <path d="M1194.19,2076.97C1195,2077.79 1201.99,2084.32 1202.3,2084.63" style="fill:rgb(39,39,42);"/>
                            <path d="M1195.45,2075.72C1196.26,2076.53 1203.23,2083.05 1203.54,2083.35C1204.25,2084.04 1204.26,2085.17 1203.58,2085.87C1202.89,2086.57 1201.76,2086.59 1201.06,2085.9C1200.74,2085.59 1193.74,2079.04 1192.92,2078.22C1192.23,2077.53 1192.24,2076.4 1192.94,2075.71C1193.63,2075.01 1194.76,2075.02 1195.45,2075.72Z" style="fill:white;"/>
                        </g>
                    </g>
                </g>
            </g>
        </g>
    </g>
</svg>
