<?xml version="1.0" encoding="UTF-8" standalone="no"?>
<!DOCTYPE svg PUBLIC "-//W3C//DTD SVG 1.1//EN" "http://www.w3.org/Graphics/SVG/1.1/DTD/svg11.dtd">
<svg width="100%" height="100%" viewBox="0 0 1298 321" version="1.1" xmlns="http://www.w3.org/2000/svg" xmlns:xlink="http://www.w3.org/1999/xlink" xml:space="preserve" xmlns:serif="http://www.serif.com/" style="fill-rule:evenodd;clip-rule:evenodd;stroke-miterlimit:5;">
    <g transform="matrix(1,0,0,1,-4444.41,-5274.13)">
        <g transform="matrix(0.996682,0,0,0.994293,4138.64,5048.44)">
            <g transform="matrix(1.00333,0,0,2.52727,-2105.56,-13182.5)">
                <path d="M3700.67,5315.2C3700.67,5310.31 3690.69,5306.34 3678.4,5306.34L2427.64,5306.34C2415.35,5306.34 2405.37,5310.31 2405.37,5315.2L2405.37,5424.07C2405.37,5428.96 2415.35,5432.93 2427.64,5432.93L3678.4,5432.93C3690.69,5432.93 3700.67,5428.96 3700.67,5424.07L3700.67,5315.2Z" style="fill:rgb(24,24,27);stroke:white;stroke-width:0.21px;"/>
            </g>
        </g>
        <g transform="matrix(0.996682,0,0,0.994293,4138.64,5048.44)">
            <g transform="matrix(0.704941,0,0,0.706635,221.046,-780.027)">
                <g transform="matrix(1,0,0,1,111.176,978.567)">
                    <g transform="matrix(0.277001,0,0,1,735.431,756.541)">
                        <path d="M1151.78,37.052C1151.78,29.535 1129.75,23.433 1102.61,23.433L315.136,23.433C288.002,23.433 265.972,29.535 265.972,37.052L265.972,64.289C265.972,71.806 288.002,77.908 315.136,77.908L1102.61,77.908C1129.75,77.908 1151.78,71.806 1151.78,64.289L1151.78,37.052Z" style="fill:url(#_Linear1);"/>
                    </g>
                    <g transform="matrix(1.24164,0,0,1.24164,755.877,770.196)">
                        <text x="89.146px" y="37.587px" style="font-family:'MalgunGothicBold', 'Malgun Gothic', sans-serif;font-weight:700;font-size:20.831px;fill:white;">Uplo<tspan x="135.802px 147.113px " y="37.587px 37.587px ">ad</tspan> image</text>
                    </g>
                </g>
                <g transform="matrix(0.996682,0,0,0.994293,-237.059,853.051)">
                    <g transform="matrix(0.319486,0,0,1.07033,809.442,-1300.81)">
                        <path d="M1188.18,2078.29C1188.18,2079.11 1188.23,2095.21 1188.23,2096.82C1188.23,2097.75 1190.73,2098.5 1193.82,2098.5C1196.9,2098.5 1199.4,2097.75 1199.4,2096.82C1199.4,2095.21 1199.35,2079.11 1199.35,2078.29C1199.35,2077.37 1196.85,2076.62 1193.76,2076.62C1190.68,2076.62 1188.18,2077.37 1188.18,2078.29Z" style="fill:white;"/>
                    </g>
                    <g transform="matrix(1,0,0,1,0,-5.0287)">
                        <g transform="matrix(0.319486,0,0,0.647274,796.026,-399.792)">
                            <path d="M1188.18,2078.29C1188.18,2079.11 1188.23,2095.21 1188.23,2096.82C1188.23,2098.35 1190.73,2099.59 1193.82,2099.59C1196.9,2099.59 1199.4,2098.35 1199.4,2096.82C1199.4,2095.21 1199.35,2079.11 1199.35,2078.29C1199.35,2076.76 1196.85,2075.52 1193.76,2075.52C1190.68,2075.52 1188.18,2076.76 1188.18,2078.29Z" style="fill:white;"/>
                        </g>
                        <g transform="matrix(0.319486,0,0,0.647274,822.541,-399.792)">
                            <path d="M1188.18,2078.29C1188.18,2079.11 1188.23,2095.21 1188.23,2096.82C1188.23,2098.35 1190.73,2099.59 1193.82,2099.59C1196.9,2099.59 1199.4,2098.35 1199.4,2096.82C1199.4,2095.21 1199.35,2079.11 1199.35,2078.29C1199.35,2076.76 1196.85,2075.52 1193.76,2075.52C1190.68,2075.52 1188.18,2076.76 1188.18,2078.29Z" style="fill:white;"/>
                        </g>
                        <g transform="matrix(1.96173e-17,0.320254,-1.41966,8.69555e-17,4154.36,575.404)">
                            <path d="M1188.18,2078.29C1188.18,2079.11 1188.23,2095.21 1188.23,2096.82C1188.23,2097.52 1190.73,2098.08 1193.82,2098.08C1196.9,2098.08 1199.4,2097.52 1199.4,2096.82C1199.4,2095.21 1199.35,2079.11 1199.35,2078.29C1199.35,2077.59 1196.85,2077.03 1193.76,2077.03C1190.68,2077.03 1188.18,2077.59 1188.18,2078.29Z" style="fill:white;"/>
                        </g>
                    </g>
                    <g>
                        <g transform="matrix(1.00333,0,0,1.00574,-7.24175,-1165.79)">
                            <path d="M1192.92,2078.22C1193.74,2079.04 1200.74,2085.59 1201.06,2085.9C1201.76,2086.59 1202.89,2086.57 1203.58,2085.87C1204.26,2085.17 1204.25,2084.04 1203.54,2083.35C1203.23,2083.05 1196.26,2076.53 1195.45,2075.72C1194.76,2075.02 1193.63,2075.01 1192.94,2075.71C1192.24,2076.4 1192.23,2077.53 1192.92,2078.22Z" style="fill:white;"/>
                        </g>
                        <g transform="matrix(-1.00333,0,0,1.00574,2389.03,-1165.79)">
                            <path d="M1195.45,2075.72C1196.26,2076.53 1203.23,2083.05 1203.54,2083.35C1204.25,2084.04 1204.26,2085.17 1203.58,2085.87C1202.89,2086.57 1201.76,2086.59 1201.06,2085.9C1200.74,2085.59 1193.74,2079.04 1192.92,2078.22C1192.23,2077.53 1192.24,2076.4 1192.94,2075.71C1193.63,2075.01 1194.76,2075.02 1195.45,2075.72Z" style="fill:white;"/>
                        </g>
                    </g>
                </g>
            </g>
        </g>
        <g transform="matrix(0.996682,0,0,0.994293,4138.64,5048.44)">
            <g transform="matrix(2.17469,0,0,2.17991,284.905,233.183)">
                <text x="89.146px" y="37.587px" style="font-family:'MalgunGothicBold', 'Malgun Gothic', sans-serif;font-weight:700;font-size:17.828px;fill:url(#_Linear2);">Y<tspan x="98.226px 109.272px 119.37px 123.827px 130.756px " y="37.587px 37.587px 37.587px 37.587px 37.587px ">ou&apos;re</tspan> reading this headline - so will ev<tspan x="426.281px 436.083px 443.865px 453.223px 464.269px " y="37.587px 37.587px 37.587px 37.587px 37.587px ">eryon</tspan>e else!</text>
            </g>
        </g>
        <g transform="matrix(0.996682,0,0,0.994293,4138.64,5048.44)">
            <g transform="matrix(1.33859,0,0,1.34181,440.071,324.426)">
                <text x="89.146px" y="37.587px" style="font-family:'MalgunGothicBold', 'Malgun Gothic', sans-serif;font-weight:700;font-size:17.828px;fill:white;">This is y<tspan x="158.499px 169.545px " y="37.587px 37.587px ">ou</tspan>r one and only chance to mak<tspan x="436.831px 446.633px " y="37.587px 37.587px ">e </tspan>a dazzling fir<tspan x="563.637px 571.872px " y="37.587px 37.587px ">st</tspan> impression!</text>
            </g>
        </g>
        <g transform="matrix(0.996682,0,0,0.994293,4138.64,5048.44)">
            <g transform="matrix(1.45763,0,0,1.46113,493.495,355.499)">
                <text x="89.146px" y="37.587px" style="font-family:'MalgunGothic', 'Malgun Gothic', sans-serif;font-size:9.637px;fill:white;fill-opacity:0.5;">R<tspan x="94.732px 99.889px " y="37.587px 37.587px ">ec</tspan>ommended: 1200x400p<tspan x="207.454px 211.933px " y="37.587px 37.587px ">x,</tspan> JPG or PNG. Choose a bold, eye-cat<tspan x="375.497px 380.052px " y="37.587px 37.587px ">ch</tspan>ing visual that r<tspan x="454.233px 459.39px 465.177px 468.448px 473.605px " y="37.587px 37.587px 37.587px 37.587px 37.587px ">epres</tspan>ents your stor<tspan x="539.24px 543.343px " y="37.587px 37.587px ">y.</tspan></text>
            </g>
        </g>
    </g>
    <defs>
        <linearGradient id="_Linear1" x1="0" y1="0" x2="1" y2="0" gradientUnits="userSpaceOnUse" gradientTransform="matrix(885.808,0,0,54.4748,265.972,50.6705)"><stop offset="0" style="stop-color:rgb(69,180,239);stop-opacity:1"/><stop offset="0.5" style="stop-color:rgb(87,43,246);stop-opacity:1"/><stop offset="1" style="stop-color:rgb(209,19,153);stop-opacity:1"/></linearGradient>
        <linearGradient id="_Linear2" x1="0" y1="0" x2="1" y2="0" gradientUnits="userSpaceOnUse" gradientTransform="matrix(130.74,0,0,13.7626,89.8601,30.9325)"><stop offset="0" style="stop-color:rgb(69,180,239);stop-opacity:1"/><stop offset="0.19" style="stop-color:rgb(87,43,246);stop-opacity:1"/><stop offset="0.62" style="stop-color:rgb(176,26,178);stop-opacity:1"/><stop offset="1" style="stop-color:rgb(209,19,153);stop-opacity:1"/></linearGradient>
    </defs>
</svg>
