<?xml version="1.0" encoding="UTF-8" standalone="no"?>
<!DOCTYPE svg PUBLIC "-//W3C//DTD SVG 1.1//EN" "http://www.w3.org/Graphics/SVG/1.1/DTD/svg11.dtd">
<svg width="100%" height="100%" viewBox="0 0 59 52" version="1.1" xmlns="http://www.w3.org/2000/svg" xmlns:xlink="http://www.w3.org/1999/xlink" xml:space="preserve" xmlns:serif="http://www.serif.com/" style="fill-rule:evenodd;clip-rule:evenodd;stroke-linejoin:round;stroke-miterlimit:2;">
    <g transform="matrix(1,0,0,1,-3025.41,-4174.8)">
        <g transform="matrix(0.996682,0,0,0.994293,2101.56,3817.07)">
            <g transform="matrix(0.0662647,0,0,0.954192,909.302,337.43)">
                <g>
                    <path d="M1151.78,37.052C1151.78,29.535 1064.12,23.433 956.144,23.433L461.607,23.433C353.633,23.433 265.972,29.535 265.972,37.052L265.972,64.289C265.972,71.806 353.633,77.908 461.607,77.908L956.144,77.908C1064.12,77.908 1151.78,71.806 1151.78,64.289L1151.78,37.052Z" style="fill:rgb(39,39,42);"/>
                </g>
            </g>
        </g>
        <g transform="matrix(0.996682,0,0,0.994293,2101.56,3807.07)">
            <g id="drag-drop-svgrepo-com.svg" transform="matrix(0.0510569,0,0,0.0511795,956.276,395.837)">
                <g transform="matrix(1,0,0,1,-400,-400)">
                    <g>
                        <rect x="0" y="0" width="800" height="800" style="fill:none;fill-rule:nonzero;"/>
                        <path d="M533.333,433.333L765.467,568.733L666.367,597.067L737.2,719.767L679.467,753.1L608.633,630.433L534.533,702.1L533.333,433.333ZM466.667,200L533.333,200L533.333,266.667L700,266.667C718.286,266.667 733.333,281.714 733.333,300L733.333,433.333L666.667,433.333L666.667,333.333L333.333,333.333L333.333,666.667L466.667,666.667L466.667,733.333L300,733.333C281.714,733.333 266.667,718.286 266.667,700L266.667,533.333L200,533.333L200,466.667L266.667,466.667L266.667,300C266.667,281.714 281.714,266.667 300,266.667L466.667,266.667L466.667,200ZM133.333,466.667L133.333,533.333L66.667,533.333L66.667,466.667L133.333,466.667ZM133.333,333.333L133.333,400L66.667,400L66.667,333.333L133.333,333.333ZM133.333,200L133.333,266.667L66.667,266.667L66.667,200L133.333,200ZM133.333,66.667L133.333,133.333L66.667,133.333L66.667,66.667L133.333,66.667ZM266.667,66.667L266.667,133.333L200,133.333L200,66.667L266.667,66.667ZM400,66.667L400,133.333L333.333,133.333L333.333,66.667L400,66.667ZM533.333,66.667L533.333,133.333L466.667,133.333L466.667,66.667L533.333,66.667Z" style="fill:white;fill-rule:nonzero;"/>
                    </g>
                </g>
            </g>
        </g>
    </g>
</svg>
