<?xml version="1.0" encoding="UTF-8" standalone="no"?>
<!DOCTYPE svg PUBLIC "-//W3C//DTD SVG 1.1//EN" "http://www.w3.org/Graphics/SVG/1.1/DTD/svg11.dtd">
<svg width="100%" height="100%" viewBox="0 0 709 47" version="1.1" xmlns="http://www.w3.org/2000/svg" xmlns:xlink="http://www.w3.org/1999/xlink" xml:space="preserve" xmlns:serif="http://www.serif.com/" style="fill-rule:evenodd;clip-rule:evenodd;stroke-linecap:round;stroke-linejoin:round;stroke-miterlimit:1.5;">
    <g transform="matrix(1,0,0,1,-524.111,-1836.41)">
        <g transform="matrix(0.996682,0,0,0.994293,8.6926,1257.45)">
            <g transform="matrix(0.794596,0,0,0.0656306,170.718,486.283)">
                <path d="M1329.71,1578.48C1329.71,1516.74 1325.58,1466.61 1320.49,1466.61L445.5,1466.61C440.412,1466.61 436.282,1516.74 436.282,1578.48L436.282,2053.94C436.282,2115.68 440.412,2165.81 445.5,2165.81L1320.49,2165.81C1325.58,2165.81 1329.71,2115.68 1329.71,2053.94L1329.71,1578.48Z" style="fill:rgb(39,39,42);stroke:white;stroke-width:0.89px;"/>
            </g>
        </g>
        <g transform="matrix(0.996682,0,0,0.994293,8.6926,1257.45)">
            <g transform="matrix(1.45763,0,0,1.46113,407.436,557.363)">
                <text x="89.146px" y="37.587px" style="font-family:'MalgunGothic', 'Malgun Gothic', sans-serif;font-size:13.175px;fill:white;fill-opacity:0.5;">Ent<tspan x="108.009px 115.06px " y="37.587px 37.587px ">er</tspan> contract name</text>
            </g>
        </g>
    </g>
</svg>
