<?xml version="1.0" encoding="UTF-8" standalone="no"?>
<!DOCTYPE svg PUBLIC "-//W3C//DTD SVG 1.1//EN" "http://www.w3.org/Graphics/SVG/1.1/DTD/svg11.dtd">
<svg width="100%" height="100%" viewBox="0 0 104 74" version="1.1" xmlns="http://www.w3.org/2000/svg" xmlns:xlink="http://www.w3.org/1999/xlink" xml:space="preserve" xmlns:serif="http://www.serif.com/" style="fill-rule:evenodd;clip-rule:evenodd;stroke-linejoin:round;stroke-miterlimit:2;">
    <g transform="matrix(1,0,0,1,-62.9053,-11.72)">
        <g transform="matrix(0.0278661,0,0,0.0278661,60.3688,-0.633193)">
            <g transform="matrix(1.08496,0,0,1.0179,-170.176,2.41367)">
                <rect x="1560.3" y="433.14" width="386.277" height="1265.57" style="fill:url(#_Linear1);"/>
            </g>
            <path d="M3363.03,2953.95C3363.03,2953.95 2976.77,3177.24 2513.2,3001.78C2256.74,2904.7 2027.59,2543.53 2002.52,2505.16C2002.52,2505.16 2255.22,2189.28 2259.54,2193.44C2292.02,2224.76 2448.89,2465.2 2554.79,2537.07C2665.28,2612.07 2779.6,2683.18 2970.3,2652.7C3217.62,2613.18 3363.39,2371.41 3363.39,2371.41" style="fill:url(#_Linear2);"/>
            <path d="M3421.17,2470.92C3422.52,2447.75 3443.22,2074.2 3390.09,1942.48C3356.26,1858.59 3268.81,1711.19 3107.17,1645.27C2955.45,1583.38 2779.15,1587.81 2633.79,1670.86C2561.72,1712.03 2397.69,1903.9 2359.97,1958.81C2323.5,2014.7 1972.12,2474.32 1972.12,2474.32C1972.12,2474.32 1792.59,2743.35 1467.02,2979.07C1231.3,3149.74 857.758,3073.22 760.787,3048.45C470.205,2974.23 226.48,2763.69 134.941,2474.32C98.86,2360.26 86.861,2240 92.254,2120.78C97.769,1998.84 126.508,1879.35 170.93,1765.41C353.602,1296.86 821.557,1121.11 1286.23,1228.41C1345.46,1242.09 1587.1,1310.11 1695.77,1400.6C1742.46,1439.48 1890.47,1694.12 1941.78,1731.52C1868.72,1829.34 1662.26,2088.89 1656.22,2080.66C1560.18,1949.87 1466.29,1825.54 1396.67,1752.54C1364.49,1718.8 1326.78,1688.4 1286.07,1665.59C1241.7,1640.73 1192.39,1626.32 1142.77,1616.25C1014.63,1590.25 875.39,1602.15 760.787,1668.48C702.968,1701.95 654.83,1749.35 615.662,1803.22C515.695,1940.71 479.125,2123.88 529.362,2287.5C602.031,2524.17 860.168,2697.81 1107.83,2651.96C1222.22,2630.78 1318.25,2565.39 1407.08,2493.48C1463.76,2447.6 1853.67,1933.92 1911.86,1861.91C1911.86,1861.91 2075.85,1598.88 2335.58,1385.29C2468.96,1275.61 2633.57,1219.77 2746.42,1203.44C2983.45,1169.14 3319.16,1197.95 3556.91,1456.64C3846.57,1771.78 3807.86,1963.54 3809.45,2200.65C3809.7,2236.87 3809.22,2272.06 3807.84,2306.18L3807.84,3095.05L3421.11,3095.05L3421.11,2472.06L3421.17,2470.92Z" style="fill:url(#_Linear3);"/>
        </g>
    </g>
    <defs>
        <linearGradient id="_Linear1" x1="0" y1="0" x2="1" y2="0" gradientUnits="userSpaceOnUse" gradientTransform="matrix(3719.36,0,0,2651.74,91.0235,1769.18)"><stop offset="0" style="stop-color:rgb(66,201,238);stop-opacity:1"/><stop offset="0.45" style="stop-color:rgb(88,37,246);stop-opacity:1"/><stop offset="1" style="stop-color:rgb(229,16,138);stop-opacity:1"/></linearGradient>
        <linearGradient id="_Linear2" x1="0" y1="0" x2="1" y2="0" gradientUnits="userSpaceOnUse" gradientTransform="matrix(3719.36,0,0,2651.74,91.0235,1769.18)"><stop offset="0" style="stop-color:rgb(66,201,238);stop-opacity:1"/><stop offset="0.45" style="stop-color:rgb(88,37,246);stop-opacity:1"/><stop offset="1" style="stop-color:rgb(229,16,138);stop-opacity:1"/></linearGradient>
        <linearGradient id="_Linear3" x1="0" y1="0" x2="1" y2="0" gradientUnits="userSpaceOnUse" gradientTransform="matrix(3719.36,0,0,2651.74,91.0235,1769.18)"><stop offset="0" style="stop-color:rgb(66,201,238);stop-opacity:1"/><stop offset="0.45" style="stop-color:rgb(88,37,246);stop-opacity:1"/><stop offset="1" style="stop-color:rgb(229,16,138);stop-opacity:1"/></linearGradient>
    </defs>
</svg>
